<svg width="25" height="25" viewBox="0 0 25 25" fill="none" xmlns="http://www.w3.org/2000/svg">
<path d="M24.7495 2.47297C24.9099 2.63388 25 2.85182 25 3.07902C25 3.30623 24.9099 3.52417 24.7495 3.68508L22.9586 5.47749L19.5244 2.04375L21.3153 0.251338C21.4763 0.0904064 21.6946 0 21.9223 0C22.15 0 22.3683 0.0904064 22.5293 0.251338L24.7495 2.47125V2.47297ZM21.7446 6.6896L18.3104 3.25586L6.61186 14.9546C6.51736 15.0491 6.44621 15.1643 6.40409 15.2911L5.02183 19.4356C4.99677 19.5112 4.99321 19.5922 5.01155 19.6697C5.0299 19.7472 5.06943 19.818 5.12573 19.8743C5.18203 19.9306 5.25287 19.9701 5.33035 19.9884C5.40782 20.0068 5.48887 20.0032 5.56443 19.9782L9.70949 18.5961C9.83615 18.5545 9.95138 18.4839 10.046 18.3901L21.7446 6.6896Z" fill="#6F7377"/>
<path fill-rule="evenodd" clip-rule="evenodd" d="M0 22.4286C0 23.1106 0.270918 23.7646 0.753154 24.2468C1.23539 24.7291 1.88944 25 2.57143 25H21.4286C22.1106 25 22.7646 24.7291 23.2468 24.2468C23.7291 23.7646 24 23.1106 24 22.4286V12.1429C24 11.9155 23.9097 11.6975 23.7489 11.5368C23.5882 11.376 23.3702 11.2857 23.1429 11.2857C22.9155 11.2857 22.6975 11.376 22.5368 11.5368C22.376 11.6975 22.2857 11.9155 22.2857 12.1429V22.4286C22.2857 22.6559 22.1954 22.8739 22.0347 23.0347C21.8739 23.1954 21.6559 23.2857 21.4286 23.2857H2.57143C2.3441 23.2857 2.12608 23.1954 1.96534 23.0347C1.80459 22.8739 1.71429 22.6559 1.71429 22.4286V3.57143C1.71429 3.3441 1.80459 3.12608 1.96534 2.96534C2.12608 2.80459 2.3441 2.71429 2.57143 2.71429H13.7143C13.9416 2.71429 14.1596 2.62398 14.3204 2.46323C14.4811 2.30249 14.5714 2.08447 14.5714 1.85714C14.5714 1.62981 14.4811 1.4118 14.3204 1.25105C14.1596 1.09031 13.9416 1 13.7143 1H2.57143C1.88944 1 1.23539 1.27092 0.753154 1.75315C0.270918 2.23539 0 2.88944 0 3.57143V22.4286Z" fill="#6F7377"/>
<path fill-rule="evenodd" clip-rule="evenodd" d="M0 22.4286C0 23.1106 0.270918 23.7646 0.753154 24.2468C1.23539 24.7291 1.88944 25 2.57143 25H21.4286C22.1106 25 22.7646 24.7291 23.2468 24.2468C23.7291 23.7646 24 23.1106 24 22.4286V12.1429C24 11.9155 23.9097 11.6975 23.7489 11.5368C23.5882 11.376 23.3702 11.2857 23.1429 11.2857C22.9155 11.2857 22.6975 11.376 22.5368 11.5368C22.376 11.6975 22.2857 11.9155 22.2857 12.1429V22.4286C22.2857 22.6559 22.1954 22.8739 22.0347 23.0347C21.8739 23.1954 21.6559 23.2857 21.4286 23.2857H2.57143C2.3441 23.2857 2.12608 23.1954 1.96534 23.0347C1.80459 22.8739 1.71429 22.6559 1.71429 22.4286V3.57143C1.71429 3.3441 1.80459 3.12608 1.96534 2.96534C2.12608 2.80459 2.3441 2.71429 2.57143 2.71429H13.7143C13.9416 2.71429 14.1596 2.62398 14.3204 2.46323C14.4811 2.30249 14.5714 2.08447 14.5714 1.85714C14.5714 1.62981 14.4811 1.4118 14.3204 1.25105C14.1596 1.09031 13.9416 1 13.7143 1H2.57143C1.88944 1 1.23539 1.27092 0.753154 1.75315C0.270918 2.23539 0 2.88944 0 3.57143V22.4286Z" fill="#6F7377"/>
</svg>
